<?xml version="1.0" standalone="no"?>
<!DOCTYPE svg PUBLIC "-//W3C//DTD SVG 20010904//EN"
 "http://www.w3.org/TR/2001/REC-SVG-20010904/DTD/svg10.dtd">
<svg version="1.0" xmlns="http://www.w3.org/2000/svg"
 width="1280.000000pt" height="400.000000pt" viewBox="0 100 1280.000000 400.000000"
 preserveAspectRatio="xMidYMid meet">
<metadata>
Created by potrace 1.15, written by Peter Selinger 2001-2017
</metadata>
<g transform="translate(0.000000,640.000000) scale(0.100000,-0.100000)"
fill="#6A9C89" stroke="none">
<path d="M3795 4813 l-30 -17 50 -8 c110 -17 375 -25 665 -21 247 4 314 3 354
-9 37 -11 62 -12 110 -4 43 7 114 6 246 -4 102 -8 300 -15 440 -16 274 -2 373
-5 1038 -31 410 -16 439 -16 545 1 103 16 117 16 178 2 52 -12 79 -14 120 -6
43 8 63 7 102 -6 44 -15 79 -16 286 -8 304 11 369 8 524 -21 70 -14 149 -25
177 -25 38 0 48 -3 44 -14 -12 -32 -65 -41 -229 -39 l-160 3 39 -33 c34 -30
37 -37 27 -55 -11 -20 -9 -20 41 5 90 45 192 44 248 -3 l30 -26 0 35 c0 52 36
98 105 132 57 29 66 30 185 30 150 0 175 -9 207 -77 28 -58 37 -64 65 -39 24
23 77 28 110 10 17 -9 25 -6 52 19 42 42 78 53 140 46 42 -5 56 -3 70 12 17
17 17 18 -6 30 -26 13 -238 30 -238 18 0 -4 7 -16 17 -26 9 -10 14 -21 10 -24
-3 -3 -43 -10 -89 -16 l-83 -10 -37 42 c-24 27 -44 40 -55 38 -10 -3 -40 4
-66 14 -86 33 -217 19 -320 -34 -35 -17 -40 -18 -50 -4 -16 21 -206 44 -482
57 -121 6 -476 9 -790 8 -449 -2 -580 0 -619 11 -40 11 -92 11 -295 1 -225
-12 -250 -11 -296 4 -42 15 -118 18 -502 25 -248 4 -456 11 -462 14 -6 4 -79
1 -163 -5 -136 -10 -157 -10 -192 5 -42 18 -137 20 -336 7 -76 -5 -155 -3
-232 6 -65 7 -179 12 -255 10 -76 -1 -154 1 -173 5 -25 6 -43 3 -65 -9z"/>
<path d="M1580 4719 c-197 -49 -216 -61 -288 -174 -64 -101 -81 -118 -101
-101 -36 31 -84 39 -168 28 -111 -15 -195 -45 -276 -99 -37 -24 -82 -49 -100
-54 -18 -5 -59 -25 -91 -44 -37 -22 -81 -39 -119 -45 -63 -10 -156 -49 -177
-75 -11 -13 -6 -15 32 -15 56 0 127 24 244 83 50 25 107 49 128 52 20 4 62 27
93 51 110 85 314 127 380 78 15 -12 29 -28 31 -37 5 -27 -101 -121 -229 -202
-68 -43 -140 -90 -159 -104 -19 -14 -61 -39 -93 -56 -32 -16 -109 -67 -170
-113 -62 -46 -133 -94 -158 -107 -39 -20 -59 -41 -59 -61 0 -25 120 37 218
113 48 36 126 86 174 110 48 23 137 78 197 120 61 43 146 100 188 128 107 68
149 115 213 236 72 135 135 201 216 225 93 27 264 21 264 -9 0 -7 20 -33 45
-57 32 -31 45 -52 45 -72 0 -46 21 -130 53 -208 24 -61 30 -87 28 -142 -3
-100 41 -174 54 -90 3 20 8 44 9 54 6 30 -15 118 -50 210 -21 55 -38 122 -43
171 -9 82 -10 82 -60 128 -54 51 -143 100 -175 98 -12 -1 -55 -10 -96 -20z"/>
<path d="M5700 4629 c-90 -16 -75 -24 49 -26 64 -1 207 -9 317 -17 345 -26
385 -28 484 -15 52 7 124 12 160 11 36 -1 128 -3 205 -5 77 -2 154 -9 171 -14
22 -8 59 -6 134 4 100 15 108 15 205 -6 113 -24 280 -28 500 -10 146 11 244
18 263 19 6 0 12 3 12 8 0 9 -96 16 -180 13 -36 -1 -168 -3 -295 -4 -184 -1
-248 2 -322 16 -85 16 -96 17 -162 2 -65 -15 -78 -15 -177 0 -124 20 -380 17
-502 -6 -59 -11 -80 -11 -115 0 -82 24 -649 48 -747 30z"/>
<path d="M4533 4563 c-18 -9 -33 -19 -33 -22 0 -3 89 -6 198 -6 161 -1 242 -7
442 -32 367 -48 1010 -68 1010 -32 0 28 -103 38 -188 19 -31 -8 -65 -6 -130 5
-48 9 -175 18 -282 21 -135 4 -244 13 -354 30 -134 21 -169 24 -225 15 -50 -8
-89 -7 -161 4 -126 19 -236 18 -277 -2z"/>
<path d="M6845 4489 c-38 -12 -261 -15 -432 -5 -99 6 -133 5 -133 -3 0 -7 17
-19 37 -28 36 -14 227 -18 768 -12 483 4 939 -11 1062 -37 20 -4 21 -7 11 -24
-21 -34 -62 -44 -141 -35 -75 9 -172 10 -292 4 -38 -2 -92 0 -118 5 -32 6 -71
5 -115 -3 -56 -11 -85 -10 -180 3 -147 21 -217 20 -267 -3 l-40 -18 55 -6 c30
-3 249 -11 485 -18 237 -6 460 -13 496 -16 l66 -5 12 -39 c15 -49 46 -79 84
-79 41 0 32 30 -16 53 -33 15 -37 21 -37 55 0 48 22 69 115 112 69 32 70 32
40 41 -73 21 -204 31 -545 41 -447 14 -545 14 -636 4 -57 -7 -82 -5 -120 8
-52 18 -112 20 -159 5z"/>
<path d="M10368 4449 c-73 -8 -164 -52 -182 -87 -7 -15 -19 -45 -26 -67 -7
-22 -29 -58 -50 -80 -21 -22 -43 -58 -50 -80 -16 -50 -33 -70 -88 -102 l-43
-26 -42 41 c-71 69 -117 77 -215 37 -34 -14 -79 -25 -101 -25 -23 0 -60 -10
-87 -25 -26 -14 -55 -25 -65 -25 -20 0 -43 -19 -156 -131 -43 -42 -93 -84
-111 -94 -19 -9 -102 -62 -185 -117 -173 -114 -328 -195 -503 -261 -209 -79
-304 -106 -354 -100 -25 2 -99 -2 -165 -11 -151 -20 -199 -20 -215 -1 -7 9
-43 32 -79 52 -75 41 -116 76 -137 116 -12 21 -22 27 -49 27 -26 0 -52 13
-103 50 -39 28 -134 79 -225 119 -192 86 -241 117 -337 216 -41 42 -95 87
-120 100 -105 53 -286 59 -417 13 -94 -33 -218 -104 -260 -148 -18 -19 -47
-50 -64 -68 -18 -19 -73 -52 -123 -75 -50 -23 -173 -83 -274 -134 -168 -85
-188 -93 -240 -93 -66 1 -139 28 -234 87 -125 79 -160 88 -363 89 l-180 1
-145 151 c-164 171 -275 267 -381 331 -62 38 -82 45 -125 44 -75 0 -172 -37
-260 -98 -44 -30 -113 -74 -154 -99 -41 -24 -102 -69 -135 -98 -86 -78 -239
-152 -320 -154 -37 -1 -77 -9 -105 -22 -25 -12 -65 -22 -90 -22 -25 0 -101 -9
-170 -20 -182 -29 -174 -30 -242 43 -44 48 -72 68 -120 87 -45 18 -67 33 -76
53 -7 15 -26 34 -41 41 -15 8 -44 35 -64 60 -27 32 -51 49 -87 61 -31 10 -57
27 -67 42 -10 14 -33 32 -53 40 -19 9 -56 35 -82 59 -36 34 -55 44 -80 44 -18
0 -48 4 -65 9 -46 13 -171 -41 -237 -103 -27 -25 -47 -49 -43 -52 4 -4 50 14
102 40 96 48 175 66 227 53 12 -4 66 -40 118 -82 52 -41 112 -83 133 -93 22
-9 45 -29 53 -44 8 -15 54 -59 103 -98 49 -38 91 -76 94 -84 3 -8 26 -24 51
-35 25 -11 89 -51 143 -89 108 -77 125 -87 184 -107 36 -13 41 -13 46 2 4 11
-5 25 -28 44 -19 15 -31 30 -27 34 3 3 37 11 74 16 38 5 107 19 154 30 46 11
128 26 182 34 118 18 197 51 293 125 187 143 226 172 311 223 212 129 336 130
473 3 36 -34 78 -67 93 -73 15 -7 34 -25 42 -40 7 -15 52 -62 97 -104 81 -74
160 -169 141 -169 -6 0 -171 -21 -368 -46 -641 -81 -871 -104 -1050 -104 -61
0 -93 5 -130 21 -39 18 -59 20 -114 15 -72 -6 -130 -23 -130 -36 0 -12 113
-64 190 -88 86 -26 227 -55 430 -87 301 -48 437 -83 550 -140 31 -16 66 -25
95 -25 30 0 72 -11 118 -31 67 -30 440 -174 480 -186 9 -3 17 -8 17 -12 -1 -7
-124 -58 -245 -101 -90 -32 -161 -43 -420 -65 -99 -8 -195 -18 -213 -21 l-33
-6 6 34 c9 49 -20 102 -88 160 -31 27 -58 57 -62 67 -6 19 -9 19 -53 5 -26 -7
-68 -14 -94 -14 -38 0 -50 -5 -67 -25 -11 -14 -22 -40 -26 -58 -11 -56 -26
-97 -36 -97 -5 0 -18 19 -30 42 -17 34 -20 53 -16 102 5 53 2 67 -20 108 -31
56 -61 78 -110 82 -31 1 -38 7 -46 31 -29 89 -109 96 -269 23 -38 -17 -68 -34
-68 -38 0 -3 -33 -61 -73 -128 -94 -155 -104 -185 -88 -254 7 -29 11 -57 9
-62 -1 -5 -26 -8 -53 -7 -28 1 -64 -3 -80 -9 -17 -7 -72 -12 -123 -11 -56 1
-132 -7 -190 -18 -78 -16 -151 -20 -369 -23 l-273 -4 0 36 c0 26 -7 43 -26 61
-14 13 -41 50 -60 81 -47 78 -75 98 -134 98 -47 0 -47 0 -65 48 -10 26 -21 51
-26 56 -5 5 -42 -2 -89 -18 -58 -20 -91 -26 -116 -22 -28 6 -45 1 -92 -27 -31
-19 -83 -49 -115 -68 l-59 -34 4 -100 c2 -75 8 -110 24 -141 l20 -42 -55 -12
c-31 -7 -156 -15 -279 -17 -230 -6 -252 -10 -252 -49 0 -20 271 -19 422 1 149
20 273 48 272 60 0 6 -20 23 -43 39 -58 39 -65 58 -56 161 l7 87 59 -6 59 -7
0 39 c0 35 4 41 30 52 27 11 34 10 70 -15 22 -15 42 -26 44 -24 2 2 11 18 19
35 29 56 100 53 113 -4 14 -65 10 -62 84 -62 68 0 70 -1 86 -33 9 -17 37 -57
61 -89 57 -72 55 -89 -21 -147 -48 -36 -55 -46 -42 -53 21 -12 49 -3 87 29 29
25 36 26 133 24 58 -1 147 5 207 15 68 11 130 14 179 10 59 -5 88 -2 138 14
51 16 105 21 266 27 111 3 220 2 241 -2 l40 -8 -30 -9 c-16 -5 -153 -15 -304
-22 -268 -13 -290 -17 -291 -47 0 -15 43 -16 125 -3 49 8 90 12 93 9 3 -3 -2
-13 -11 -23 -25 -25 -203 -27 -267 -4 -70 26 -250 22 -365 -7 -104 -27 -144
-44 -126 -56 22 -13 117 -6 198 14 110 28 164 34 193 22 23 -9 21 -10 -17 -10
-52 -1 -73 -9 -73 -27 0 -30 51 -37 130 -17 66 16 118 18 420 18 l345 0 57
-28 c46 -23 70 -29 127 -29 62 0 71 -2 77 -20 9 -29 6 -154 -6 -223 -16 -97
-11 -215 10 -215 13 0 30 103 40 245 8 113 7 148 -4 179 -7 21 -11 47 -9 57 5
18 32 34 42 24 14 -15 12 -164 -4 -275 -17 -117 -14 -190 6 -190 25 0 37 68
39 220 2 253 2 250 25 250 11 0 29 -7 39 -15 28 -21 36 -19 36 9 0 40 -25 51
-111 48 -84 -3 -101 6 -69 38 24 24 41 25 105 5 55 -16 59 -15 51 13 -9 26
-55 42 -123 42 -52 0 -54 1 -48 23 12 39 22 42 72 24 27 -9 58 -17 71 -17 20
0 21 3 12 20 -28 53 -140 67 -219 28 l-46 -23 32 -3 32 -3 1 -67 c0 -37 1 -78
3 -92 1 -18 -3 -25 -15 -24 -10 0 -42 1 -72 2 -35 1 -62 8 -76 20 -21 17 -22
20 -8 48 33 64 31 78 -16 111 -49 34 -89 107 -84 150 2 22 9 29 33 33 37 6 43
31 16 66 -12 15 -21 30 -21 33 0 4 15 24 34 44 23 25 42 37 61 37 24 0 26 3
20 23 -4 12 -9 36 -12 54 -5 29 -2 33 32 47 48 20 85 20 113 0 20 -14 23 -14
28 3 15 47 25 63 39 63 28 0 63 -46 80 -104 18 -60 31 -68 60 -36 23 25 45 26
45 1 0 -10 16 -31 35 -45 45 -35 47 -71 5 -111 -25 -24 -30 -37 -28 -65 3 -35
7 -38 40 -25 13 5 17 0 20 -27 3 -30 7 -33 42 -39 82 -13 88 -86 12 -170 -25
-28 -46 -55 -46 -60 0 -5 14 -6 31 -2 17 3 68 0 114 -7 46 -7 91 -10 101 -6
18 7 18 8 0 21 -10 8 -43 19 -72 25 -30 6 -56 15 -58 19 -8 12 25 114 42 134
20 22 36 22 29 -2 -3 -14 5 -22 42 -35 79 -28 97 -20 64 31 -18 28 -90 63
-129 63 -13 0 -24 5 -24 11 0 7 16 8 45 3 41 -6 45 -4 45 14 0 20 -24 32 -67
32 -29 0 -37 15 -22 42 17 33 28 38 82 38 27 0 57 4 67 10 21 11 36 -3 42 -40
2 -16 10 -26 24 -28 12 -2 33 -16 48 -31 26 -27 27 -29 10 -58 -22 -38 -13
-63 24 -63 16 0 31 -2 34 -6 3 -3 -3 -37 -13 -77 -10 -40 -19 -84 -19 -99 0
-38 -30 -52 -96 -43 -57 7 -64 1 -39 -31 28 -37 9 -74 -22 -43 -16 16 -43 4
-43 -19 0 -20 -24 -45 -53 -55 -15 -6 -15 -10 -5 -26 9 -15 8 -31 -5 -80 -21
-74 -22 -125 -3 -140 11 -9 17 5 31 81 16 82 23 97 59 136 22 24 60 55 85 70
45 26 51 27 206 27 101 1 174 6 197 14 31 10 41 10 65 -2 41 -22 132 -35 273
-41 96 -4 158 -14 266 -40 167 -41 244 -53 244 -38 0 15 -26 28 -72 36 -22 4
-42 15 -48 26 -22 41 67 67 245 74 36 1 41 -2 63 -42 18 -33 29 -42 46 -40 26
4 24 26 -10 75 -13 20 -24 46 -24 59 0 23 -4 24 -57 24 -32 -1 -94 -7 -138
-15 -44 -9 -125 -22 -180 -31 -55 -9 -110 -18 -122 -20 -13 -3 -23 -13 -25
-27 -2 -17 -10 -23 -38 -25 -20 -2 -44 4 -55 12 -19 15 -19 15 12 16 35 0 53
17 32 31 -23 14 -65 10 -119 -11 -64 -25 -91 -25 -190 1 -72 18 -94 20 -218
12 -75 -5 -155 -6 -177 -3 l-40 6 45 7 c25 4 194 23 375 42 182 20 409 47 505
60 96 13 243 31 325 40 195 20 255 29 460 75 302 67 653 116 1119 155 172 15
180 14 200 -3 16 -15 55 -22 171 -35 83 -9 299 -38 480 -66 583 -89 749 -102
957 -75 29 4 97 -2 175 -15 192 -31 320 -41 623 -50 151 -4 276 -7 278 -6 2 2
-30 10 -70 19 -47 10 -140 17 -263 19 -154 3 -224 10 -370 35 -254 43 -305 47
-404 28 -74 -14 -90 -14 -146 -1 -40 9 -87 12 -132 8 -55 -4 -92 0 -179 21
-96 23 -118 25 -166 16 -50 -10 -64 -8 -144 18 -92 31 -104 32 -396 57 -126
10 -215 24 -305 46 -149 38 -263 42 -407 15 -93 -17 -207 -20 -241 -7 -33 13
72 31 181 31 65 0 106 5 132 16 33 14 35 17 17 24 -30 13 -158 11 -255 -3 -83
-12 -85 -13 -103 -49 -12 -25 -27 -38 -45 -42 -15 -3 -162 -28 -327 -55 -165
-28 -370 -63 -455 -80 -85 -17 -193 -33 -240 -37 -47 -3 -195 -23 -330 -45
-343 -54 -454 -66 -705 -79 -121 -6 -241 -13 -267 -17 -43 -5 -48 -4 -48 14 0
13 10 25 28 31 72 28 312 57 587 71 185 10 211 13 345 50 80 22 168 43 195 46
28 4 86 13 130 20 44 7 132 16 195 20 219 13 392 47 656 131 246 77 342 102
453 115 83 10 105 10 159 -5 83 -21 104 -21 100 1 -2 11 -15 20 -32 23 -16 3
-31 11 -34 18 -2 7 2 10 10 7 7 -3 22 2 33 10 19 15 14 16 -65 10 -158 -12
-317 -47 -609 -134 -348 -104 -449 -124 -646 -126 -143 -1 -165 -4 -210 -24
-27 -13 -77 -25 -110 -27 -33 -2 -100 -18 -150 -34 -138 -45 -173 -50 -400
-60 -144 -6 -256 -17 -355 -35 -80 -13 -173 -25 -207 -25 -56 0 -63 2 -63 20
0 11 3 20 8 20 26 0 201 33 332 63 196 45 281 56 400 50 88 -5 100 -3 171 26
41 16 84 28 95 25 10 -2 62 9 114 27 92 30 103 31 330 38 208 7 240 10 275 28
52 26 69 30 197 43 118 12 167 27 308 93 115 54 173 67 288 67 63 0 94 4 110
15 16 12 27 13 41 5 11 -5 46 -10 78 -10 36 0 67 -6 80 -15 17 -12 31 -13 55
-7 22 6 46 4 73 -4 78 -26 244 -63 311 -70 42 -4 92 -18 127 -35 42 -19 68
-26 92 -22 21 3 49 -2 81 -16 99 -44 551 -111 889 -132 188 -11 385 -7 559 12
82 9 96 8 175 -16 110 -32 287 -61 421 -70 114 -7 308 7 405 30 58 13 61 13
76 -7 l16 -21 138 34 c77 19 141 40 143 47 2 7 -6 12 -23 12 -35 0 -28 24 9
28 17 2 44 -7 74 -26 26 -17 63 -33 82 -37 36 -7 60 -22 60 -35 0 -20 -117
-41 -280 -50 -96 -5 -231 -19 -300 -31 -163 -29 -296 -29 -413 -1 -48 12 -119
22 -158 22 -57 0 -84 6 -140 30 -60 27 -80 31 -152 29 -45 0 -273 1 -507 4
-325 3 -451 8 -534 21 -60 9 -131 16 -157 16 -31 0 -69 10 -106 26 -35 16 -88
30 -133 34 -41 5 -113 20 -160 35 -47 14 -166 39 -265 56 -99 16 -211 36 -250
44 -85 19 -126 19 -149 2 -15 -11 1 -15 112 -30 71 -9 223 -38 338 -63 115
-25 273 -56 351 -69 118 -18 147 -26 172 -48 17 -14 54 -31 83 -37 83 -19 563
-27 808 -13 208 12 328 9 361 -8 32 -16 298 -70 419 -84 178 -21 320 -19 536
10 104 14 223 25 264 25 l75 -1 -150 -55 c-213 -77 -255 -87 -350 -81 -82 6
-145 -9 -145 -34 0 -8 19 -10 68 -5 45 4 60 3 47 -4 -50 -23 -354 -139 -390
-148 -102 -27 -207 -25 -470 9 -53 7 -202 11 -360 11 -237 -2 -282 1 -365 18
-70 15 -178 24 -410 35 -173 8 -350 20 -393 26 -79 12 -100 8 -79 -13 22 -22
12 -28 -30 -22 -54 8 -117 39 -195 95 -33 24 -69 50 -79 56 -16 10 -2 12 71 8
50 -3 160 -7 245 -10 85 -3 295 -15 465 -25 397 -25 1004 -57 1350 -71 149 -6
285 -12 304 -13 42 -1 52 19 14 30 -15 5 -158 9 -318 9 -232 1 -306 5 -369 18
-100 22 -308 37 -501 37 -141 0 -244 7 -660 46 -131 13 -185 14 -237 6 -47 -7
-79 -7 -105 0 -22 6 -72 8 -119 4 -57 -4 -93 -2 -120 8 -25 8 -113 15 -239 19
-183 6 -202 5 -223 -11 -21 -17 -22 -20 -7 -32 19 -16 63 -16 111 0 29 10 47
9 92 -3 32 -9 80 -19 107 -23 65 -9 91 -19 127 -49 16 -14 42 -28 56 -32 15
-3 42 -19 60 -34 72 -63 146 -87 367 -118 144 -21 202 -37 317 -90 37 -17 85
-35 108 -40 42 -9 110 -4 110 8 0 4 -28 13 -62 19 -87 18 -158 41 -189 63 -14
10 -59 25 -100 33 -79 17 -281 77 -276 83 2 2 46 -1 98 -6 161 -17 378 -30
824 -51 514 -24 794 -44 782 -56 -2 -2 -54 -13 -117 -24 -62 -12 -131 -29
-153 -40 -35 -17 -43 -18 -56 -6 -23 20 -88 36 -145 36 -36 0 -56 6 -71 20
-43 40 -140 24 -192 -32 -36 -38 -44 -72 -25 -99 20 -30 32 -39 55 -39 26 0
21 26 -10 48 l-28 21 29 30 c33 35 75 54 108 49 18 -2 24 -10 26 -36 4 -44 25
-50 62 -18 33 27 46 26 93 -8 35 -26 132 -27 191 -2 57 24 69 21 118 -34 61
-67 81 -66 53 2 -5 13 0 20 20 28 39 15 79 12 137 -10 29 -11 62 -17 75 -13
14 3 41 -2 63 -12 43 -20 73 -14 68 12 -5 26 -46 43 -103 43 -28 0 -76 9 -106
20 -51 17 -60 18 -110 5 -29 -8 -57 -11 -62 -6 -4 4 25 13 65 20 205 36 472
116 838 251 217 81 514 180 537 180 9 0 31 16 49 35 30 32 36 34 54 23 16 -11
28 -10 69 5 27 9 108 26 180 37 151 23 248 47 486 119 260 80 370 101 575 107
l175 6 115 -57 c63 -32 153 -72 200 -90 47 -18 93 -36 104 -41 16 -6 17 -4 8
13 -14 26 -126 84 -227 118 -44 14 -94 37 -112 51 -49 37 -78 45 -127 34 -30
-7 -77 -5 -157 5 -63 7 -127 11 -143 8 l-29 -6 34 48 c62 86 91 93 159 39 39
-31 50 -35 80 -29 19 3 49 7 65 7 52 2 199 -33 227 -54 42 -29 185 -93 298
-132 122 -43 130 -47 205 -108 68 -55 123 -76 157 -61 20 9 17 13 -52 60 -110
73 -191 116 -327 172 -67 27 -153 68 -191 90 -89 52 -101 76 -100 193 1 75 -1
91 -22 121 -30 44 -81 75 -210 126 -58 23 -123 52 -145 64 -40 23 -40 23 -37
77 4 59 23 100 48 100 11 0 14 -9 12 -36 -5 -56 18 -53 27 3 8 53 20 82 44
100 37 29 43 17 39 -77 -2 -75 -1 -87 10 -73 26 36 34 95 41 319 6 204 9 234
26 260 l19 29 8 -45 c8 -42 5 -97 -22 -425 -12 -140 -12 -161 -1 -149 17 17
42 217 48 374 3 85 9 171 14 191 12 47 37 58 63 27 17 -21 18 -34 12 -133 -4
-60 -17 -180 -30 -265 -13 -85 -22 -157 -20 -159 8 -9 24 14 38 57 11 30 20
109 26 224 6 111 15 190 24 211 48 117 57 -17 25 -406 -6 -71 -8 -131 -5 -134
3 -3 13 11 22 33 12 30 17 84 21 229 4 181 16 285 33 285 4 0 10 -132 13 -292
6 -306 15 -408 44 -461 l18 -32 3 30 c2 17 -4 107 -14 200 -9 94 -17 208 -18
255 -1 101 12 240 24 240 4 0 18 -23 30 -52 18 -41 24 -82 31 -202 13 -227 41
-376 70 -376 11 0 12 -18 -11 155 -35 256 -22 398 19 218 66 -285 92 -365 137
-426 16 -21 16 -20 10 38 -3 33 -20 96 -37 140 -47 121 -59 165 -59 220 0 75
7 81 75 66 39 -9 75 -27 117 -59 l62 -47 1 -75 c1 -55 7 -89 24 -126 23 -53
75 -113 87 -101 4 4 -9 42 -29 86 -40 88 -57 161 -37 161 6 0 36 -20 64 -45
59 -50 79 -56 74 -23 -2 14 -23 37 -53 58 -27 19 -83 68 -125 108 -97 95 -130
112 -219 112 l-69 0 -37 65 c-107 192 -244 284 -444 301 -69 6 -84 4 -100 -10
-36 -33 -44 -95 -35 -258 l9 -150 -55 -44 c-69 -56 -212 -128 -284 -145 -53
-11 -56 -11 -85 14 -17 14 -67 40 -113 59 -115 47 -165 96 -232 228 l-54 105
-48 10 -49 10 3 43 c4 50 -25 107 -80 158 -27 26 -43 33 -90 36 -41 3 -69 13
-100 33 -52 34 -94 43 -170 34z m39 -63 c-3 -8 -29 -118 -57 -243 -57 -254
-95 -408 -110 -449 -10 -26 -11 -26 -30 -9 -28 26 -25 67 14 181 19 54 48 164
66 244 30 141 56 252 65 278 2 6 16 12 31 12 19 0 25 -4 21 -14z m112 -26 l44
-20 -6 -123 c-4 -79 -16 -161 -33 -232 -14 -60 -29 -121 -31 -135 l-6 -25 25
23 c42 38 88 233 88 371 0 70 10 91 44 91 18 0 19 -5 13 -102 -8 -133 -40
-306 -77 -421 -29 -91 -29 -92 -5 -65 38 44 65 133 91 293 30 187 43 245 56
245 6 0 7 -7 2 -17 -4 -10 -16 -106 -26 -213 -21 -224 -54 -372 -98 -442 -35
-57 -25 -63 21 -11 40 46 83 140 98 213 9 45 30 256 31 309 0 24 38 -17 51
-56 18 -54 -7 -225 -57 -392 -26 -85 -26 -103 0 -82 39 32 86 246 86 388 0 84
2 94 15 83 32 -26 38 -88 25 -250 -7 -85 -18 -172 -26 -193 -22 -59 -18 -77
10 -45 32 35 46 107 46 226 0 103 8 172 20 172 15 0 30 -53 30 -105 0 -30 -7
-96 -16 -146 -8 -50 -13 -98 -10 -106 4 -9 -6 -41 -21 -72 -26 -51 -28 -66
-28 -171 0 -113 0 -114 -25 -121 -84 -24 -152 2 -168 64 -9 33 -21 37 -67 22
-15 -4 -39 8 -88 45 -88 67 -109 100 -104 163 3 34 1 47 -9 47 -8 0 -16 -11
-20 -25 -9 -37 -38 -31 -68 16 -19 29 -24 44 -17 53 24 29 91 179 119 268 30
91 62 258 77 393 l7 60 -21 -19 c-29 -26 -40 -75 -51 -218 -5 -77 -17 -147
-30 -187 -29 -86 -120 -291 -130 -291 -10 0 -20 26 -20 52 0 11 16 61 36 112
46 114 100 333 112 453 9 91 29 143 55 143 6 0 32 -9 56 -20z m-233 -119 c-8
-108 -36 -230 -81 -361 -47 -133 -50 -140 -59 -107 -4 17 7 66 33 144 61 186
74 291 46 380 -5 17 0 28 21 48 l28 26 9 -23 c5 -13 6 -61 3 -107z m1495 18
c-9 -34 -20 -107 -22 -149 l-1 -45 -9 50 c-5 28 -6 76 -3 108 5 47 9 57 23 54
9 -2 14 -10 12 -18z m-1561 -73 c0 -31 -16 -42 -28 -19 -12 22 -5 43 14 43 8
0 14 -10 14 -24z m-60 -102 c0 -18 -11 -62 -25 -98 -26 -69 -32 -116 -15 -116
6 0 10 9 10 20 0 11 5 20 10 20 15 0 12 -35 -5 -76 l-15 -36 -37 32 c-50 44
-66 74 -58 113 5 29 4 30 -8 15 -15 -19 -27 -14 -27 9 0 21 154 170 162 158 4
-5 8 -24 8 -41z m-433 -141 c-41 -49 -149 -187 -241 -308 -222 -292 -318 -407
-458 -547 -118 -118 -144 -159 -48 -73 28 25 56 45 63 45 14 0 138 124 218
220 84 99 174 219 294 390 174 250 229 305 297 298 41 -4 41 -19 -2 -38 -26
-12 -42 -35 -90 -130 -115 -229 -235 -423 -389 -630 -47 -63 -92 -123 -99
-132 -11 -16 -11 -18 5 -18 29 0 142 126 225 250 42 63 120 196 173 295 121
224 176 317 183 311 7 -7 -43 -154 -79 -235 -16 -35 -27 -66 -25 -68 8 -8 45
66 75 149 38 110 52 136 90 172 l31 30 0 -27 c0 -91 -217 -488 -415 -757 -34
-47 -73 -104 -86 -128 -16 -30 -42 -55 -89 -84 -69 -43 -110 -76 -110 -90 0
-4 20 -8 45 -8 39 0 45 3 51 25 3 14 50 69 103 123 123 123 204 244 381 564
149 269 186 309 70 74 -84 -168 -51 -138 40 37 35 67 64 123 65 125 1 1 14 -2
28 -9 31 -14 49 -52 41 -86 -6 -23 -5 -24 13 -14 11 5 23 8 26 5 15 -15 -83
-240 -198 -454 -110 -207 -147 -281 -142 -286 9 -10 108 135 171 251 36 66 95
190 132 275 37 85 69 157 71 160 2 2 19 -12 38 -33 31 -34 33 -39 24 -74 -14
-54 -140 -304 -150 -297 -5 2 -4 16 2 31 16 43 2 38 -21 -7 -16 -32 -19 -45
-10 -55 9 -11 7 -20 -8 -40 -11 -14 -35 -60 -52 -103 -39 -94 -83 -179 -107
-209 -17 -21 -35 -24 -273 -44 -256 -21 -354 -21 -488 2 -34 6 -64 15 -67 19
-9 14 35 59 88 89 60 34 81 55 92 89 7 23 6 23 -22 9 -27 -15 -51 -33 -163
-124 -42 -35 -55 -41 -70 -33 -10 6 -48 10 -84 10 -36 0 -66 4 -66 9 0 4 18
20 40 35 37 25 52 46 31 46 -5 0 -47 -18 -94 -41 -93 -44 -172 -58 -222 -39
l-30 11 34 28 c20 17 30 31 23 35 -14 9 -55 -8 -110 -47 l-47 -32 -173 -3
c-96 -2 -213 1 -260 7 -146 19 -357 54 -366 62 -15 13 124 24 274 22 155 -1
269 -23 337 -63 44 -26 44 -26 31 10 -7 20 -29 42 -69 68 -33 20 -101 63 -150
95 l-91 58 83 50 c116 71 199 109 234 109 29 -1 29 -1 10 -16 -11 -8 -71 -43
-132 -76 -62 -34 -113 -65 -113 -70 0 -17 53 -7 110 22 91 46 211 125 250 164
21 21 57 43 90 54 30 11 97 40 149 66 51 26 96 45 99 42 15 -15 -25 -54 -158
-152 -184 -136 -332 -255 -326 -261 3 -3 33 8 68 24 65 31 215 139 327 237 66
57 81 65 81 44 0 -7 69 58 153 143 139 143 283 266 295 254 12 -12 -62 -97
-269 -305 -153 -154 -243 -237 -283 -260 -33 -19 -78 -51 -100 -71 -23 -20
-66 -49 -96 -64 -90 -45 -125 -86 -50 -60 104 37 314 180 405 276 33 35 76 73
96 84 21 11 57 47 81 80 25 33 96 114 158 180 62 66 131 143 152 172 22 29 59
63 83 77 23 14 70 55 103 91 52 57 65 66 91 63 29 -3 28 -5 -147 -224 -331
-413 -497 -596 -607 -668 -44 -29 -102 -74 -130 -99 l-50 -47 35 12 c42 14
106 56 140 93 14 15 79 71 145 125 148 120 192 167 354 384 149 200 233 300
290 345 63 50 50 16 -30 -80 -38 -46 -81 -105 -95 -131 -13 -27 -28 -48 -33
-48 -5 0 -32 -31 -60 -70 -28 -38 -45 -67 -37 -64 19 7 99 109 190 242 120
174 199 251 259 252 12 0 -4 -25 -56 -87z m-3158 1 c28 -8 49 -19 47 -23 -10
-15 -90 -20 -190 -11 -54 5 -122 5 -150 0 -28 -4 -53 -7 -54 -5 -8 7 66 40
118 52 63 14 155 9 229 -13z m-164 -74 c-11 -5 -40 -9 -65 -9 -34 0 -40 3 -25
9 11 5 40 9 65 9 34 0 40 -3 25 -9z m-167 -6 l23 -7 -21 -14 c-11 -8 -46 -25
-77 -38 l-57 -23 160 -7 c87 -4 229 -5 314 -2 168 7 222 0 254 -32 l20 -21
-179 0 c-208 0 -259 -9 -452 -75 -126 -43 -140 -46 -295 -55 -150 -9 -188 -13
-243 -26 -42 -10 11 14 98 45 63 22 98 41 120 64 29 31 126 77 162 77 18 0 20
20 3 20 -15 0 18 29 81 71 48 31 53 32 89 23z m479 -25 c29 -7 50 -16 47 -21
-6 -10 -345 -9 -424 1 l-55 7 55 12 c30 6 66 13 80 16 43 8 242 -2 297 -15z
m4307 -5 c20 -8 20 -62 1 -204 -8 -58 -15 -131 -15 -162 0 -63 17 -158 29
-158 12 0 21 81 22 199 1 124 11 257 21 267 4 4 14 1 23 -6 11 -9 15 -34 15
-99 0 -63 8 -118 29 -201 16 -63 31 -126 33 -140 4 -22 6 -20 17 16 12 36 11
52 -4 120 -22 101 -31 242 -16 257 8 8 16 7 29 -6 14 -14 18 -42 22 -142 5
-99 9 -129 23 -142 9 -9 20 -13 24 -9 10 10 9 79 -1 185 l-9 83 36 -23 36 -24
-6 -107 c-4 -73 -2 -121 7 -152 25 -91 43 -40 34 97 -3 50 -2 103 3 116 l10
25 28 -28 c28 -28 28 -29 22 -125 -8 -123 9 -208 34 -171 5 9 7 64 4 135 -7
138 1 164 36 128 19 -19 24 -38 30 -131 7 -110 20 -157 42 -149 13 4 14 50 2
170 -8 80 -2 93 28 62 16 -15 21 -35 32 -117 6 -50 28 -79 47 -60 7 7 5 23 -7
55 -19 51 -13 87 15 87 28 0 40 -31 40 -102 0 -64 11 -88 38 -88 12 0 13 9 7
43 -20 108 -3 120 88 60 l58 -38 4 -122 c2 -68 1 -123 -1 -123 -3 0 -32 9 -65
20 -69 24 -101 27 -144 17 -27 -7 -33 -4 -48 23 -10 16 -28 35 -39 41 -14 8
-128 15 -312 20 -263 7 -378 17 -408 35 -17 11 -3 137 32 274 17 69 34 164 37
213 6 87 8 92 37 81z m518 -129 c8 -8 -13 -85 -23 -85 -7 0 -57 19 -67 26 -2
1 2 12 8 24 15 28 67 50 82 35z m-4529 -53 c38 -11 74 -25 80 -31 17 -17 -146
-14 -221 5 -61 16 -64 15 -77 -3 -11 -16 -31 -21 -103 -26 -170 -12 -323 -40
-732 -134 -157 -35 -321 -71 -365 -79 -115 -21 -298 -45 -303 -40 -14 14 117
60 244 86 174 35 235 59 227 88 -4 18 2 21 59 27 34 3 129 17 209 31 81 13
166 24 189 24 34 0 43 4 47 20 7 25 13 26 183 40 74 6 144 13 155 15 11 2 92
2 180 0 120 -3 177 -9 228 -23z m-2234 -53 c36 -5 99 -24 140 -41 42 -16 117
-44 167 -62 51 -18 103 -40 118 -49 24 -16 58 -63 39 -56 -5 2 -74 32 -155 67
-80 34 -181 71 -224 83 -99 25 -219 28 -300 6 -34 -9 -97 -17 -140 -17 -51 0
-117 -9 -184 -26 -90 -22 -118 -25 -196 -19 -80 6 -96 4 -131 -14 -36 -18 -62
-20 -306 -23 -146 -2 -259 1 -251 5 7 4 85 14 171 22 87 8 183 21 213 29 30 8
141 20 245 26 105 6 262 21 350 35 288 44 353 49 444 34z m2071 -36 c0 -17 16
-18 192 -18 148 0 200 -3 223 -15 28 -13 20 -14 -125 -21 -256 -11 -463 -36
-890 -110 -366 -63 -513 -86 -675 -108 -179 -24 -376 -43 -382 -38 -12 13 60
41 126 49 144 17 257 39 571 109 475 106 773 160 928 167 24 2 32 -2 32 -15z
m-2048 -52 c42 -11 98 -31 125 -44 26 -13 71 -27 100 -30 58 -7 193 -70 193
-91 0 -20 -43 -25 -84 -11 -20 7 -67 31 -105 55 -96 57 -145 70 -296 77 -112
5 -135 3 -170 -13 -29 -13 -76 -19 -166 -24 -95 -4 -132 -10 -152 -23 -32 -21
-63 -23 -189 -12 -87 7 -103 5 -145 -13 -104 -44 -451 -54 -693 -19 -144 21
-70 31 255 34 262 3 309 6 371 23 46 13 101 20 158 20 60 0 122 8 194 26 89
21 121 24 192 19 71 -5 101 -2 180 19 118 30 138 31 232 7z m5478 -3 c0 -7 -8
-26 -18 -43 -24 -40 -33 -65 -23 -65 4 0 16 18 26 39 15 34 41 59 51 49 7 -7
-100 -247 -183 -413 l-91 -180 -63 -37 c-58 -35 -89 -46 -89 -33 0 3 23 30 50
60 50 55 61 80 38 87 -7 3 18 50 66 123 74 113 146 242 146 262 0 26 32 113
51 137 22 28 39 34 39 14z m-4663 -34 c-128 -50 -243 -62 -133 -13 47 20 154
47 196 48 14 0 -15 -15 -63 -35z m-2749 -9 c23 -7 29 -20 13 -29 -5 -4 -33 0
-63 8 -50 13 -52 15 -28 24 25 10 33 10 78 -3z m4425 -12 c26 -4 34 -9 25 -14
-8 -5 9 -9 43 -9 55 0 93 -19 75 -38 -4 -4 -83 -9 -174 -12 -98 -3 -175 -10
-187 -17 -11 -6 -79 -14 -150 -18 -200 -11 -475 -55 -558 -90 -25 -10 -91 -19
-190 -24 -119 -7 -171 -15 -237 -36 -62 -19 -121 -28 -220 -35 -76 -4 -201
-22 -285 -39 -284 -57 -495 -85 -495 -65 1 19 28 44 107 97 l81 56 162 11
c251 16 333 28 1050 154 227 40 412 65 560 75 136 10 345 13 393 4z m-4123
-12 c0 -20 -67 -27 -131 -14 l-34 7 30 7 c45 10 135 10 135 0z m7223 -22 l19
-27 -108 -213 c-60 -117 -111 -217 -113 -223 -8 -23 82 71 104 109 13 22 44
92 70 155 26 63 50 119 55 123 4 5 15 0 25 -9 21 -22 15 -72 -15 -114 -11 -16
-26 -44 -32 -62 -6 -18 -33 -69 -60 -114 -51 -85 -57 -104 -34 -104 33 0 76
73 166 278 23 50 25 52 54 46 17 -3 32 -7 33 -8 9 -8 -25 -81 -71 -155 -53
-84 -86 -149 -86 -170 0 -7 9 -6 25 1 18 8 37 36 62 87 19 42 48 94 64 117 15
22 33 55 41 72 l13 31 33 -16 c17 -8 32 -21 32 -27 0 -7 -25 -48 -56 -92 -48
-68 -104 -164 -104 -178 0 -2 9 -2 20 1 27 7 63 55 90 118 28 66 66 105 102
105 15 0 28 -3 28 -7 0 -11 -38 -72 -70 -113 -31 -39 -47 -80 -31 -80 23 0 72
56 110 125 22 40 44 76 49 79 13 8 368 19 396 12 34 -8 33 -23 -9 -82 -19 -27
-35 -54 -35 -61 0 -27 34 4 76 68 43 68 68 85 110 77 14 -2 9 -13 -29 -56 -26
-29 -47 -57 -47 -62 0 -24 31 -5 82 50 48 52 59 60 91 60 49 0 48 -17 -3 -63
-26 -23 -40 -44 -40 -60 0 -21 -6 -27 -32 -32 -18 -4 -141 -33 -273 -65 -206
-50 -353 -80 -395 -80 -7 0 -9 8 -5 20 4 11 2 20 -4 20 -6 0 -11 -4 -11 -10 0
-13 -135 -76 -202 -93 -71 -18 -84 -9 -74 54 8 51 -10 49 -39 -4 -11 -20 -28
-37 -37 -37 -9 0 -48 12 -85 26 -37 14 -88 32 -113 41 -25 9 -46 17 -48 18 -3
2 78 150 112 204 46 72 95 178 111 240 30 117 48 133 88 80z m-5521 -13 c86
-19 167 -59 212 -105 43 -44 49 -35 -89 -129 l-90 -61 -55 15 c-67 17 -218 18
-447 2 -224 -16 -312 -6 -411 45 -39 21 -80 37 -92 37 -12 0 -18 5 -15 10 4 6
83 10 203 10 108 0 343 7 522 15 179 7 346 12 370 9 81 -8 5 16 -100 32 -125
18 -377 18 -664 -2 -150 -10 -303 -14 -439 -11 -251 5 -274 12 -136 41 42 9
173 20 290 26 130 6 295 22 419 40 306 44 411 49 522 26z m2668 -83 c0 -21 5
-23 45 -23 24 0 55 -5 69 -11 58 -27 32 -75 -34 -62 -76 17 -369 4 -710 -31
-190 -20 -396 -36 -459 -36 -120 0 -291 17 -291 30 0 16 91 32 229 40 133 8
206 20 536 82 79 15 146 21 240 20 72 0 146 3 165 8 19 5 74 8 123 7 84 -1 87
-1 87 -24z m529 -99 c-7 -9 -40 -34 -74 -55 l-60 -38 -14 24 c-8 12 -28 30
-45 38 l-31 16 55 1 c43 1 124 14 179 29 2 1 -3 -6 -10 -15z m-1954 -43 c-15
-14 -416 -148 -540 -181 -164 -43 -259 -59 -485 -80 -334 -32 -422 -47 -513
-91 -96 -45 -152 -34 -94 18 32 29 52 38 145 63 49 13 106 37 141 60 53 34 67
39 147 45 177 13 356 37 714 95 201 33 392 64 425 69 33 5 62 9 65 10 2 0 0
-3 -5 -8z m1539 0 c-5 -6 -31 -14 -59 -19 -48 -10 -46 -10 32 -9 77 2 101 9
71 20 -7 2 -11 7 -8 10 14 15 187 -48 235 -87 19 -14 15 -15 -60 -16 -44 0
-123 7 -175 15 -123 19 -230 19 -465 -1 -227 -19 -432 -15 -515 12 l-55 17 40
8 c84 16 205 32 335 44 162 15 638 19 624 6z m-2807 -95 c10 -10 -17 -34 -70
-60 -29 -14 -72 -37 -97 -51 -25 -14 -56 -25 -70 -25 -26 0 -348 107 -364 122
-6 4 23 8 65 9 40 1 112 5 159 9 90 9 367 6 377 -4z m2936 -36 c118 -11 226
-32 272 -51 26 -11 -5 -14 -225 -22 -247 -8 -262 -10 -273 -40 -4 -13 -457 90
-457 105 0 16 532 22 683 8z m-5203 -484 c0 -18 -15 -23 -52 -18 -49 7 -30 28
30 31 13 1 22 -5 22 -13z m-82 -42 c35 -12 49 -20 40 -26 -16 -10 -174 -9
-208 2 l-25 8 32 12 c19 7 30 17 26 23 -8 14 65 3 135 -19z m-253 -3 c17 -7
14 -10 -20 -20 -60 -17 -74 -14 -46 9 25 21 35 23 66 11z m2319 -139 c13 -21
-13 -35 -54 -29 -49 6 -60 14 -40 27 18 12 87 13 94 2z"/>
<path d="M10440 3705 c-16 -20 -3 -37 23 -29 30 9 32 11 17 29 -16 19 -24 19
-40 0z"/>
<path d="M10766 3425 c-10 -26 -7 -103 4 -110 17 -10 42 63 32 93 -10 31 -27
39 -36 17z"/>
<path d="M9690 3799 c-56 -85 -122 -196 -146 -246 -25 -51 -49 -93 -53 -93
-13 0 -71 -90 -71 -109 0 -12 6 -9 21 9 45 55 150 223 228 365 45 83 96 162
114 177 23 21 28 31 20 39 -8 8 -38 -30 -113 -142z"/>
<path d="M9255 3699 c-15 -23 -68 -87 -119 -142 -169 -185 -190 -210 -171
-199 31 16 228 222 262 272 33 49 66 110 60 110 -3 0 -17 -19 -32 -41z"/>
<path d="M10000 3666 c0 -42 -134 -294 -253 -476 -64 -96 -113 -177 -111 -180
6 -5 82 76 137 145 87 110 169 261 231 427 20 53 36 100 36 103 0 3 -9 5 -20
5 -15 0 -20 -7 -20 -24z"/>
<path d="M10129 3483 c-35 -80 -49 -124 -48 -152 0 -18 7 -7 25 39 31 84 54
160 48 160 -3 0 -14 -21 -25 -47z"/>
<path d="M9610 3332 c0 -6 -11 -28 -25 -48 -14 -20 -22 -41 -19 -46 4 -6 20
11 37 36 23 36 27 50 19 58 -9 9 -12 9 -12 0z"/>
<path d="M9357 3283 c-15 -20 -24 -39 -21 -42 8 -8 54 47 54 65 0 19 -1 18
-33 -23z"/>
<path d="M9550 2926 c-42 -30 -79 -80 -69 -91 10 -9 81 19 86 35 3 8 12 29 21
47 9 18 14 34 11 37 -2 2 -24 -10 -49 -28z"/>
<path d="M6145 3730 c-68 -8 -89 -13 -162 -42 -29 -11 -53 -25 -53 -30 0 -13
84 -3 141 17 23 8 74 18 113 21 39 3 89 11 111 17 38 9 39 11 15 18 -31 9 -85
9 -165 -1z"/>
<path d="M11865 3293 c0 -37 4 -48 18 -51 14 -3 17 4 17 47 0 42 -3 51 -17 51
-15 0 -18 -9 -18 -47z"/>
<path d="M7090 3415 c-91 -13 -170 -34 -170 -45 0 -11 142 9 212 30 37 11 68
23 68 25 0 6 -6 6 -110 -10z"/>
<path d="M11117 3123 c-3 -10 -19 -36 -36 -58 -35 -47 -50 -90 -30 -83 21 7
78 92 85 127 7 33 -9 44 -19 14z"/>
<path d="M11001 3101 c-35 -33 -71 -104 -70 -141 l0 -25 22 30 c12 16 41 60
64 97 45 73 38 89 -16 39z"/>
<path d="M10832 3075 c-18 -25 -35 -52 -38 -60 -8 -21 19 -19 44 3 26 23 63
87 55 95 -14 14 -29 5 -61 -38z"/>
<path d="M4583 3385 c-18 -8 -33 -18 -33 -23 0 -8 80 -6 180 5 47 5 51 7 28
13 -61 18 -143 20 -175 5z"/>
<path d="M7363 3310 c-13 -5 -23 -11 -23 -12 0 -2 30 -3 67 -3 44 0 68 4 71
13 4 14 -80 16 -115 2z"/>
<path d="M7500 3041 c-20 -6 -10 -10 42 -16 79 -9 127 3 63 16 -48 9 -72 9
-105 0z"/>
<path d="M7368 3023 c-10 -2 -18 -8 -18 -13 0 -10 82 -1 95 11 9 9 -45 11 -77
2z"/>
<path d="M8283 4202 c-15 -9 -43 -75 -43 -100 0 -62 164 -118 233 -80 20 11
14 13 -51 24 -78 14 -114 31 -132 63 -8 16 -5 26 15 49 14 17 25 35 25 41 0
13 -29 14 -47 3z"/>
<path d="M8565 4148 c-9 -43 -9 -53 -2 -88 5 -27 14 -38 36 -47 27 -10 80 -88
68 -99 -2 -3 -51 3 -108 12 -140 23 -293 23 -336 1 -18 -10 -33 -21 -33 -26 0
-13 519 -25 610 -14 61 7 82 6 99 -5 31 -21 125 -17 177 8 48 24 114 92 95 98
-7 2 -39 -12 -72 -33 -78 -48 -114 -53 -164 -24 -32 19 -57 24 -137 27 -63 3
-99 8 -100 16 -1 6 -2 27 -2 46 -1 34 -2 35 -46 40 l-45 5 1 53 c2 45 -1 52
-17 52 -11 0 -21 -9 -24 -22z"/>
<path d="M105 4110 c-16 -4 -47 -8 -67 -9 -35 -1 -38 -3 -38 -31 0 -19 5 -30
14 -30 30 0 145 41 168 60 l23 19 -35 -1 c-19 0 -48 -4 -65 -8z"/>
<path d="M11382 4026 c-24 -28 -76 -41 -126 -32 -18 4 -44 2 -57 -2 l-23 -9
27 -18 c55 -36 175 -9 211 48 19 30 -7 41 -32 13z"/>
<path d="M12447 3848 c-15 -103 51 -286 130 -359 25 -23 47 -38 50 -35 3 2
-17 44 -45 93 -62 108 -86 180 -86 258 -1 33 -5 63 -11 67 -20 15 -33 7 -38
-24z"/>
<path d="M6603 2903 c-18 -2 -33 -8 -33 -13 0 -17 25 -24 82 -22 35 2 96 -7
157 -23 55 -14 109 -25 120 -25 59 0 -17 50 -104 68 -63 13 -180 21 -222 15z"/>
<path d="M2845 2892 c-21 -4 -55 -30 -55 -43 0 -9 62 0 73 11 15 14 3 36 -18
32z"/>
<path d="M2840 2811 c-19 -11 -46 -31 -60 -46 l-25 -28 40 7 c58 10 175 49
175 58 0 13 -37 28 -67 28 -15 -1 -44 -9 -63 -19z"/>
<path d="M2917 2744 c-14 -14 -7 -32 14 -37 28 -7 76 10 63 23 -13 13 -68 23
-77 14z"/>
<path d="M973 2717 c-18 -7 -40 -20 -50 -31 -18 -18 -16 -18 46 -12 35 3 79 6
97 6 23 0 34 5 34 15 0 33 -66 44 -127 22z"/>
<path d="M6575 2703 c-48 -12 -63 -53 -19 -53 32 0 116 20 128 31 4 4 -9 12
-30 18 -41 11 -47 12 -79 4z"/>
<path d="M996 2625 c-74 -26 -64 -34 53 -37 94 -3 111 -1 109 12 -8 37 -91 50
-162 25z"/>
<path d="M6110 2621 c-14 -5 -43 -17 -65 -28 -36 -18 -67 -21 -300 -27 -143
-3 -314 -11 -380 -16 -66 -6 -174 -13 -240 -16 -116 -7 -161 -16 -151 -33 11
-17 78 -19 163 -5 87 15 475 33 710 34 114 0 121 -1 116 -19 -7 -28 17 -37 36
-14 9 11 34 33 56 50 38 29 44 31 106 26 68 -6 109 6 109 31 0 8 -7 17 -16 20
-21 8 -113 6 -144 -3z"/>
<path d="M3315 2608 c-18 -11 -17 -12 15 -24 72 -26 124 -12 88 24 -15 15 -77
15 -103 0z"/>
<path d="M1062 2541 c-34 -10 -64 -20 -65 -22 -2 -2 -7 -17 -13 -34 -7 -22
-17 -31 -36 -33 -27 -3 -38 6 -78 58 -17 24 -19 24 -26 6 -9 -23 21 -83 51
-102 16 -10 27 -10 60 1 46 16 57 10 85 -45 27 -53 33 -138 21 -278 -13 -144
-7 -202 20 -202 66 0 94 49 86 150 -7 83 8 292 24 338 6 18 9 35 7 38 -3 2
-27 7 -55 10 -40 5 -52 11 -65 35 -23 40 -5 53 62 44 51 -7 60 -1 38 27 -21
26 -49 28 -116 9z m76 -252 c7 -71 -18 -262 -29 -231 -5 13 -6 69 -1 125 4 56
4 121 1 145 -5 37 -4 41 9 28 8 -8 17 -38 20 -67z"/>
<path d="M5987 2469 c-13 -14 -25 -18 -40 -13 -36 11 -81 6 -136 -16 -57 -22
-115 -26 -157 -10 -18 7 -90 7 -228 0 -316 -17 -396 -38 -428 -110 -7 -17 -20
-30 -30 -30 -27 0 -48 -11 -48 -26 0 -17 30 -18 65 -2 14 6 28 8 33 3 4 -4 1
-10 -5 -12 -7 -3 -13 -10 -13 -17 0 -15 140 -39 167 -29 67 24 44 53 -42 53
-34 0 -64 2 -67 5 -8 8 21 88 35 97 32 20 86 8 138 -32 30 -22 59 -40 66 -40
7 0 13 -11 13 -25 0 -20 -5 -25 -25 -25 -30 0 -32 -11 -5 -35 25 -22 97 -26
133 -6 32 17 35 31 7 31 -24 0 -113 85 -108 102 3 7 17 21 32 32 22 17 40 21
98 19 39 -1 73 -5 76 -7 3 -3 -5 -31 -17 -62 -26 -69 -27 -109 -3 -119 27 -11
468 -26 667 -23 162 3 177 4 150 17 -19 9 -81 15 -170 18 -87 3 -154 10 -178
19 -33 12 -42 12 -73 -1 -31 -13 -40 -13 -69 -1 -29 12 -36 12 -54 0 -19 -14
-22 -13 -33 10 -13 30 -44 34 -74 11 -29 -22 -37 -18 -30 15 6 34 -4 38 -44
15 -14 -8 -33 -14 -43 -15 -14 0 -16 4 -7 19 5 11 10 31 10 44 0 21 8 28 47
41 63 22 67 21 108 -19 30 -30 38 -34 55 -25 26 14 52 6 113 -36 27 -19 53
-34 58 -34 13 0 79 43 79 52 0 8 -39 20 -150 48 -143 36 -143 51 1 58 76 4 92
2 127 -18 l40 -23 36 23 c66 40 75 85 19 85 -21 0 -47 3 -58 7 -13 4 -26 -1
-38 -13z"/>
<path d="M6277 2460 c-14 -11 -40 -45 -57 -75 -47 -83 -99 -107 -142 -68 -22
19 -42 6 -36 -23 3 -19 79 -64 108 -64 9 0 28 17 41 38 31 47 93 72 134 54 33
-15 28 -32 -12 -46 -40 -14 -56 -30 -22 -21 23 6 31 1 54 -29 15 -20 32 -36
37 -36 5 0 8 27 6 62 l-3 63 35 16 c19 10 61 25 92 34 35 10 62 24 68 35 16
30 -19 26 -90 -10 -82 -41 -140 -40 -92 2 9 9 41 28 70 42 52 26 68 47 35 45
-27 -1 -71 -20 -145 -62 -38 -21 -72 -37 -78 -35 -6 2 2 20 17 41 33 46 21 69
-20 37z"/>
<path d="M3188 2459 c-10 -5 -18 -14 -18 -18 0 -11 88 -33 101 -26 5 4 9 2 9
-3 0 -11 -21 -72 -25 -72 -1 0 -28 11 -59 25 -62 27 -126 33 -126 12 0 -7 18
-51 41 -98 44 -91 43 -78 23 -253 -6 -48 -5 -58 7 -54 27 9 42 62 50 181 10
142 15 163 35 146 19 -16 18 -41 -6 -124 -24 -83 -25 -134 -5 -161 8 -10 15
-14 15 -9 0 6 14 83 30 173 20 111 36 172 50 191 30 43 30 72 0 88 -30 15 -98
17 -122 2z"/>
<path d="M6173 2439 c-17 -11 -39 -31 -47 -44 -15 -23 -15 -25 1 -25 23 1 55
27 78 63 21 32 12 34 -32 6z"/>
<path d="M10487 2429 c-41 -22 -77 -71 -77 -106 0 -43 85 -76 140 -53 45 19
39 40 -12 40 -24 0 -50 5 -58 10 -13 9 -10 15 16 39 63 58 166 49 172 -15 2
-19 -3 -36 -12 -44 -19 -15 -21 -44 -3 -58 6 -5 61 -15 120 -21 59 -6 118 -16
130 -22 35 -18 57 -41 57 -59 0 -39 -34 -42 -407 -43 -342 -1 -359 -2 -374
-21 -11 -13 -32 -20 -72 -24 -56 -4 -57 -4 -57 22 0 32 -5 32 -42 1 -35 -30
-44 -31 -60 -6 -11 18 -12 18 -52 0 -31 -14 -65 -19 -141 -19 l-100 0 4 46 c2
36 0 45 -10 42 -9 -3 -15 -23 -17 -52 -3 -38 -6 -47 -20 -44 -10 2 -23 21 -30
46 -15 45 -32 48 -32 4 0 -29 -24 -72 -41 -72 -5 0 -9 20 -9 45 0 61 -29 57
-45 -7 -13 -49 -55 -48 -55 3 0 36 -27 40 -36 5 -3 -14 -13 -27 -22 -31 -10
-4 -90 -9 -178 -12 -158 -6 -162 -5 -175 16 -17 26 -36 27 -44 1 -6 -19 -25
-28 -25 -12 0 4 -4 13 -9 20 -6 11 -15 9 -42 -7 -19 -12 -48 -21 -65 -21 -27
0 -32 4 -37 30 -6 29 -29 40 -42 20 -6 -10 -98 -60 -110 -60 -3 0 -5 11 -5 24
0 27 -26 59 -41 51 -5 -4 -9 -22 -9 -41 0 -39 2 -39 -49 -18 -36 14 -41 14
-65 -1 l-26 -17 0 31 c0 42 -27 41 -42 -1 l-11 -32 -10 25 -9 24 -15 -22 c-19
-28 -33 -29 -33 -3 0 29 -28 25 -36 -5 -4 -16 -13 -25 -25 -25 -10 0 -19 4
-19 8 0 4 -44 6 -97 4 -85 -3 -100 -6 -116 -25 -18 -21 -18 -21 0 -28 31 -13
310 -9 508 6 224 17 532 19 640 4 61 -8 98 -7 179 5 253 38 614 49 1079 31
188 -7 199 -7 195 10 -2 11 -18 22 -43 29 -50 14 382 12 765 -5 140 -5 388
-14 550 -18 255 -7 300 -11 333 -27 28 -13 42 -15 54 -8 31 20 24 32 -29 50
-44 15 -79 18 -203 16 -82 -1 -169 1 -192 4 -41 5 -43 7 -43 38 0 70 91 117
138 72 11 -11 18 -9 37 10 32 32 96 33 117 3 12 -19 17 -20 53 -10 56 15 128
14 151 -3 14 -11 35 -13 75 -9 89 9 121 -1 144 -45 15 -27 26 -37 45 -37 31 0
39 35 16 70 -20 30 -58 42 -175 54 -67 7 -97 15 -103 26 -12 20 -33 19 -107
-4 -58 -18 -61 -18 -66 0 -9 27 -40 32 -110 19 -49 -9 -72 -9 -99 0 -32 10
-40 9 -71 -10 -50 -31 -85 -86 -85 -133 l0 -38 -42 6 c-86 11 -336 25 -463 25
-71 0 -160 3 -196 6 -63 6 -66 8 -61 30 13 67 -45 113 -173 138 -135 27 -124
22 -118 59 16 100 -113 162 -220 106z"/>
<path d="M11257 2433 c-13 -13 -7 -39 14 -62 20 -21 23 -22 31 -6 19 32 -21
92 -45 68z"/>
<path d="M10150 2411 c-48 -15 -85 -39 -123 -80 -21 -23 -44 -41 -52 -41 -28
0 -125 -42 -125 -54 0 -7 -6 -21 -14 -31 -14 -19 -15 -19 -53 2 -53 30 -121
38 -164 21 -28 -12 -38 -12 -59 -1 -71 37 -230 -10 -230 -67 0 -15 8 -13 56
12 73 36 126 37 161 2 l25 -25 54 28 54 28 69 -37 c38 -21 76 -38 85 -38 11 0
25 18 38 50 28 67 60 78 146 51 34 -10 64 -16 67 -13 10 11 5 40 -10 52 -44
36 25 100 106 100 43 0 49 -3 49 -21 0 -26 16 -57 48 -91 32 -35 60 -36 72 -2
14 35 14 34 -20 34 -32 0 -50 22 -50 63 0 13 -8 31 -17 40 -22 19 -80 29 -113
18z"/>
<path d="M11174 2395 c-10 -25 1 -60 20 -63 26 -5 40 12 32 41 -7 28 -44 43
-52 22z"/>
<path d="M6614 2345 c-60 -47 -84 -55 -84 -30 0 8 6 15 14 15 8 0 18 5 22 12
11 17 -51 2 -81 -19 -31 -23 -55 -65 -55 -95 l1 -23 20 24 c11 13 22 21 26 17
4 -3 -7 -21 -24 -39 -34 -35 -58 -106 -49 -143 6 -21 3 -24 -24 -24 -40 0 -87
-20 -128 -55 l-33 -27 -483 -8 c-452 -7 -486 -9 -528 -28 -56 -24 -74 -47 -32
-39 16 3 137 8 269 12 132 3 398 10 590 16 l350 10 33 32 c31 30 33 30 68 18
53 -19 66 0 25 35 -42 35 -61 74 -61 123 0 38 2 41 38 50 20 6 56 11 80 11 36
0 48 5 69 30 13 17 29 30 35 30 11 0 96 -65 116 -89 21 -25 14 -68 -16 -102
-18 -21 -51 -39 -97 -54 l-70 -24 0 -58 c0 -52 2 -58 22 -61 20 -3 22 2 25 45
3 41 6 48 23 46 230 -26 251 -26 497 -15 330 16 419 15 519 -4 92 -17 146 -15
181 10 l22 16 -34 0 c-19 0 -62 7 -95 14 -119 28 -166 29 -316 6 -170 -27
-335 -23 -461 9 -72 19 -81 19 -120 5 -43 -15 -88 -12 -88 6 0 5 10 16 23 24
18 12 33 13 77 4 81 -15 926 -6 942 10 6 6 13 30 14 53 1 22 5 43 9 47 4 4 37
7 73 7 55 0 76 -5 116 -28 l49 -27 -7 52 c-11 83 -11 83 -122 83 l-97 0 -21
-39 c-34 -65 -102 -70 -335 -26 -152 29 -257 18 -222 -24 8 -9 49 -15 129 -19
64 -3 153 -11 197 -18 74 -12 77 -13 45 -20 -139 -30 -408 -33 -682 -7 l-118
11 -1 28 c-1 16 -2 35 -3 42 -1 9 15 11 55 9 51 -3 60 -1 90 26 41 37 34 49
-16 28 -21 -9 -44 -16 -52 -16 -15 0 -15 4 3 61 11 32 -25 28 -67 -6 -45 -38
-60 -42 -79 -20 -10 12 -5 17 29 31 36 14 61 38 61 58 0 14 -35 4 -80 -21 -54
-30 -75 -25 -42 10 44 46 20 64 -30 22 -28 -24 -78 -34 -78 -16 0 5 11 16 25
25 24 16 35 46 16 46 -5 0 -35 -20 -67 -45z"/>
<path d="M4766 2323 c-15 -15 -4 -53 20 -72 31 -24 104 -29 104 -8 0 29 -106
97 -124 80z"/>
<path d="M7072 2198 c-17 -17 -15 -58 2 -58 16 0 46 37 46 57 0 16 -32 17 -48
1z"/>
<path d="M7180 2191 c-16 -30 -12 -51 9 -51 21 0 35 15 45 48 6 19 4 22 -18
22 -15 0 -30 -8 -36 -19z"/>
<path d="M10711 2169 l-24 -9 23 -25 c25 -26 40 -20 40 17 0 23 -10 27 -39 17z"/>
<path d="M9240 2145 c0 -8 2 -15 4 -15 2 0 11 -3 20 -6 12 -4 16 0 16 15 0 14
-6 21 -20 21 -11 0 -20 -7 -20 -15z"/>
<path d="M6570 2104 c0 -25 42 -94 57 -94 18 0 56 20 65 34 13 18 9 46 -6 46
-8 0 -16 -7 -20 -15 -11 -29 -28 -16 -21 15 6 30 6 30 -34 30 -31 0 -41 -4
-41 -16z"/>
<path d="M4040 2098 c-19 -5 -42 -16 -51 -24 -15 -13 -21 -12 -53 7 -84 49
-211 -8 -241 -108 -6 -21 -3 -23 27 -23 21 0 53 13 88 35 58 38 102 44 134 20
30 -22 49 -18 68 15 14 25 23 30 55 30 21 0 60 -7 87 -15 27 -8 60 -15 74 -15
25 0 25 0 6 21 -43 48 -131 74 -194 57z"/>
<path d="M4451 2086 c-15 -8 -34 -11 -50 -6 -34 9 -81 -4 -109 -30 -30 -28
-28 -37 11 -44 17 -3 52 -22 76 -41 65 -52 135 -64 77 -14 -39 34 -34 74 11
98 18 9 29 9 52 -3 33 -18 41 -34 41 -87 0 -36 2 -38 23 -30 12 5 64 12 116
16 128 9 141 15 141 63 0 45 -14 62 -52 62 -33 0 -35 -7 -8 -35 28 -30 12 -41
-70 -50 -65 -7 -65 -7 -83 24 -40 68 -126 106 -176 77z"/>
<path d="M4944 2051 c-17 -10 -43 -34 -57 -52 -24 -31 -25 -35 -9 -41 9 -4 71
-7 138 -7 119 -1 121 -1 132 24 13 29 -58 26 627 28 323 2 427 5 450 15 26 12
28 15 13 23 -33 19 -162 21 -278 6 -210 -29 -252 -31 -295 -13 -27 12 -83 19
-172 23 -117 5 -140 4 -210 -17 l-78 -22 -74 26 c-88 31 -145 33 -187 7z m124
-43 c-5 -14 -61 -23 -85 -14 -27 11 -2 26 43 26 32 0 44 -4 42 -12z"/>
<path d="M3371 2037 c-19 -6 -49 -26 -68 -44 -26 -27 -33 -42 -33 -74 0 -39
23 -89 42 -89 6 0 7 22 3 58 -9 78 1 86 111 87 112 2 120 -4 103 -79 -15 -70
-7 -82 43 -62 32 14 37 14 49 -1 12 -13 10 -18 -10 -32 -26 -17 -109 -51 -125
-51 -6 0 -5 5 2 12 16 16 15 28 -1 28 -8 0 -26 -14 -41 -31 -26 -29 -32 -31
-75 -25 -250 32 -927 32 -1303 1 -206 -17 -207 -17 -233 3 -21 17 -35 20 -79
15 -34 -4 -79 0 -123 11 -57 14 -120 16 -398 14 -181 -2 -480 3 -664 10 -332
13 -373 10 -344 -19 22 -22 96 -29 353 -29 260 -1 532 -12 639 -26 45 -6 50
-9 35 -18 -12 -6 -119 -13 -274 -16 -277 -6 -349 -18 -228 -39 89 -15 195 -14
461 5 171 13 247 15 305 7 50 -6 88 -6 107 0 17 5 163 13 325 17 182 5 340 14
412 24 95 14 140 15 245 7 86 -6 200 -6 346 2 173 9 237 8 315 -2 170 -23 242
-25 300 -8 46 14 61 14 134 2 148 -26 648 -39 970 -25 158 6 335 9 392 5 71
-5 115 -4 140 5 33 10 50 30 26 30 -30 0 -447 53 -513 65 -42 7 -87 21 -98 29
-25 17 -49 11 -49 -14 0 -28 21 -39 94 -49 38 -5 71 -12 74 -15 3 -3 -121 -6
-276 -6 l-281 0 -9 31 -8 31 -31 -26 c-47 -40 -112 -29 -71 12 22 22 0 24 -40
3 -68 -34 -159 -45 -273 -31 -96 12 -100 13 -94 34 21 67 19 76 -29 125 -26
27 -53 66 -61 87 -10 30 -21 42 -46 51 -42 15 -103 15 -148 0z"/>
<path d="M7935 2010 c-9 -14 13 -50 30 -50 10 0 15 10 15 30 0 23 -5 30 -19
30 -11 0 -23 -4 -26 -10z"/>
<path d="M4071 1997 c-34 -17 -63 -60 -63 -93 0 -31 53 -87 60 -64 2 6 -1 17
-7 23 -18 18 -13 52 12 75 30 29 38 28 72 -8 15 -16 43 -36 62 -45 26 -13 33
-21 28 -36 -8 -24 17 -26 40 -3 17 17 13 42 -10 80 -10 16 -21 20 -40 16 -21
-4 -32 2 -57 32 -31 38 -56 44 -97 23z"/>
<path d="M3809 1958 c-5 -14 -3 -101 3 -104 11 -7 103 60 106 78 2 9 -6 18
-20 22 -23 6 -87 8 -89 4z"/>
<path d="M4600 1892 c-40 -22 -49 -39 -23 -44 41 -9 103 24 103 54 0 14 -44 9
-80 -10z"/>
<path d="M3412 1864 c-22 -15 -31 -54 -12 -54 15 0 50 38 50 55 0 19 -10 19
-38 -1z"/>
<path d="M5053 1855 c-7 -21 22 -52 61 -64 17 -5 67 -13 111 -17 44 -4 116
-17 159 -30 62 -19 104 -24 190 -25 61 0 120 -4 131 -9 14 -6 -1 -9 -48 -9
-38 -1 -99 -6 -136 -12 -43 -6 -93 -7 -132 -2 -68 9 -110 4 -116 -14 -11 -31
121 -42 263 -22 57 8 137 7 295 -1 195 -11 226 -10 293 4 68 16 82 16 163 2
121 -22 178 -21 211 4 43 31 187 35 457 12 144 -12 256 -17 300 -12 39 3 72 3
75 0 15 -20 60 -32 116 -32 49 0 72 5 115 28 29 16 46 30 38 31 -43 7 -702 43
-788 43 -117 0 -268 -15 -358 -35 -46 -11 -76 -12 -120 -5 -87 15 -213 27
-458 45 -387 28 -590 59 -736 111 -79 28 -78 28 -86 9z"/>
<path d="M3785 1790 c-9 -27 1 -40 30 -40 42 0 41 26 -2 48 -18 10 -23 9 -28
-8z"/>
<path d="M7703 1698 c-102 -22 -16 -49 154 -48 70 1 162 -1 203 -5 68 -7 77
-5 94 14 l19 21 -59 0 c-32 0 -104 7 -159 15 -113 16 -190 17 -252 3z"/>
<path d="M8246 1671 c-17 -28 15 -39 127 -44 61 -2 196 -11 299 -18 174 -12
195 -12 283 6 84 16 105 17 192 6 93 -11 661 -36 974 -43 113 -2 150 0 162 11
25 20 21 27 -15 23 -18 -2 -80 4 -138 14 -78 12 -207 18 -505 24 -274 5 -416
11 -452 20 -43 11 -80 11 -211 0 -96 -8 -204 -10 -273 -6 -283 16 -436 19
-443 7z"/>
<path d="M2642 1641 c-31 -19 45 -60 87 -46 23 7 27 25 9 43 -14 14 -76 16
-96 3z"/>
</g>
</svg>
